<svg width="124" height="36" viewBox="0 0 124 36" fill="none" xmlns="http://www.w3.org/2000/svg">
<g clip-path="url(#clip0_2315_1296)">
<path d="M26.8043 17.9868C26.8094 22.7174 22.9786 26.5565 18.248 26.5617C13.5172 26.5668 9.67808 22.7359 9.67296 18.0052C9.66788 13.2746 13.4988 9.43541 18.2295 9.4304H18.2387V-0.00390625C8.2962 -0.00390625 0.23877 8.0536 0.23877 17.996C0.23877 27.9385 8.2962 35.996 18.2387 35.996C28.1812 35.996 36.2386 27.9385 36.2386 17.996V17.9868H26.8043Z" fill="#38476F"/>
<path d="M0.23877 17.9868H9.68226C9.68482 13.2622 13.5142 9.43285 18.2388 9.43041V-0.00390625C8.2962 -0.00390625 0.23877 8.04434 0.23877 17.9868Z" fill="#A4C9EB"/>
<path d="M31.7481 17.9858H26.7953C26.8004 22.7164 22.9695 26.5555 18.2389 26.5607C13.5081 26.5658 9.66908 22.7349 9.66388 18.0042C9.6588 13.2736 13.4897 9.4344 18.2204 9.4294H18.2296V4.47656C10.7559 4.47916 4.69938 10.5398 4.70191 18.0135C4.70447 25.4872 10.7652 31.5438 18.2389 31.5411C25.7089 31.5386 31.764 25.4836 31.7666 18.0135L31.7481 17.9858Z" fill="#FEFEFE"/>
<path d="M30.5467 4.54107C30.5441 6.73809 28.7611 8.517 26.5641 8.51444C24.3671 8.5118 22.5883 6.72883 22.5908 4.53177C22.5933 2.33495 24.3765 0.556036 26.5734 0.558597C28.7693 0.563678 30.5467 2.34519 30.5467 4.54107Z" fill="#38476F"/>
<path d="M49.9312 11.4459V13.9448H49.7296C49.6111 13.3613 49.302 12.8339 48.851 12.4454C48.4482 12.1038 47.9362 11.918 47.4081 11.9214C46.9666 11.9183 46.5353 12.0536 46.1747 12.3083C45.8131 12.5614 45.533 12.9144 45.3686 13.3241C45.1427 13.8932 45.0305 14.5012 45.0381 15.1136C45.0314 15.7081 45.1129 16.3003 45.28 16.8708C45.4149 17.3464 45.6971 17.7668 46.0861 18.0719C46.477 18.36 46.9551 18.5052 47.4402 18.483C47.8515 18.4698 48.2542 18.3623 48.6172 18.1687C49.0753 17.9016 49.4799 17.5517 49.8102 17.1369V17.7656C49.4566 18.1507 49.0289 18.4606 48.5527 18.6765C48.0645 18.8762 47.5403 18.9723 47.013 18.9587C46.3037 18.9719 45.6013 18.8143 44.9656 18.4991C44.382 18.2056 43.9013 17.7418 43.5872 17.1691C43.269 16.6089 43.1023 15.9754 43.1035 15.3311C43.1065 13.9236 43.8673 12.6267 45.0946 11.9375C45.6901 11.6026 46.3622 11.4277 47.0453 11.4297C47.599 11.4357 48.1462 11.5479 48.6575 11.7602C48.8558 11.8475 49.0644 11.9097 49.2782 11.9455C49.3875 11.9471 49.4926 11.9034 49.5685 11.8246C49.6653 11.7142 49.7245 11.576 49.7377 11.4297L49.9312 11.4459V11.4459Z" fill="#3B3F72"/>
<path d="M56.92 11.8521C56.2613 11.8502 55.6677 12.2491 55.4206 12.8598C55.1021 13.6103 54.9588 14.4236 55.0015 15.2378C54.9314 16.1932 55.1566 17.1471 55.6464 17.9704C55.9385 18.3744 56.4139 18.6044 56.9119 18.5831C57.2387 18.5937 57.5604 18.5006 57.8309 18.3171C58.176 18.0349 58.4286 17.6558 58.5564 17.2288C58.7462 16.5994 58.8332 15.9434 58.8144 15.2861C58.8455 14.5616 58.7555 13.8369 58.5483 13.1419C58.4255 12.7496 58.1901 12.402 57.8712 12.1424C57.5926 11.9478 57.2597 11.8462 56.92 11.8521ZM56.8636 11.5136C58.8239 11.3432 60.5513 12.7943 60.7217 14.7546C60.7343 14.8992 60.738 15.0444 60.7329 15.1895C60.7464 16.0636 60.462 16.9165 59.9267 17.6078C59.2105 18.5262 58.0912 19.0376 56.9281 18.9781C55.7739 19.043 54.6577 18.5552 53.9214 17.6642C53.3719 16.9586 53.0868 16.0831 53.1152 15.1895C53.0829 14.1947 53.4654 13.2311 54.1713 12.5294C54.8791 11.8167 55.8613 11.4461 56.8636 11.5136V11.5136Z" fill="#3B3F72"/>
<path d="M70.7688 11.6094V13.5601H70.5753C70.5058 13.2183 70.3776 12.891 70.1964 12.5929C70.0533 12.3876 69.8587 12.2235 69.6322 12.1172C69.4028 12.046 69.1626 12.0159 68.9228 12.0286H68.3907V17.5826C68.376 17.8151 68.3951 18.0486 68.4472 18.2757C68.5017 18.3789 68.5859 18.4631 68.689 18.5176C68.8389 18.5925 69.0051 18.6287 69.1726 18.6224H69.4387V18.8159H65.6419V18.6224H65.8757C66.0518 18.6289 66.2266 18.5899 66.3835 18.5095C66.4817 18.449 66.5581 18.3586 66.6011 18.2516C66.655 18.033 66.674 17.8071 66.6576 17.5826V12.0286H66.1416C65.761 11.9928 65.3811 12.1022 65.0776 12.3349C64.7484 12.664 64.5433 13.0969 64.4973 13.5601H64.2957V11.6094H70.7687L70.7688 11.6094Z" fill="#3B3F72"/>
<path d="M76.2986 12.0286V14.9467H76.4437C76.827 14.9814 77.2013 14.817 77.4352 14.5114C77.6738 14.1307 77.8099 13.6946 77.8302 13.2457H78.0318V17.0183H77.8302C77.8058 16.6662 77.7156 16.3215 77.5641 16.0025C77.4631 15.7833 77.2971 15.6004 77.0886 15.4786C76.8337 15.3727 76.558 15.3259 76.2824 15.3417V17.365C76.2703 17.6081 76.2893 17.8519 76.3388 18.0904C76.3743 18.1817 76.4397 18.2586 76.5243 18.308C76.6617 18.3761 76.8146 18.4067 76.9677 18.3968H77.4029C78.5898 18.5248 79.6794 17.7287 79.918 16.5588H80.1114L79.789 18.8482H73.5659V18.6547H73.7996C73.9758 18.6611 74.1506 18.6222 74.3075 18.5418C74.4052 18.4828 74.4793 18.3916 74.5171 18.2839C74.5754 18.066 74.5973 17.8398 74.5817 17.6149V12.8428C74.5979 12.6442 74.5979 12.4448 74.5817 12.2462C74.557 12.1282 74.4877 12.0242 74.3881 11.9561C74.2222 11.8514 74.0278 11.8008 73.8319 11.8109H73.5981V11.6094H79.6278V13.7455H79.4262C79.3685 13.3413 79.2197 12.9553 78.9909 12.617C78.7762 12.3759 78.4961 12.2023 78.1847 12.1172C77.8188 12.0437 77.4454 12.0139 77.0724 12.0286H76.2985H76.2986Z" fill="#3B3F72"/>
<path d="M85.6654 11.9973V15.1573H85.9637C86.3369 15.1724 86.71 15.126 87.0681 15.0202C87.3164 14.9348 87.5235 14.7594 87.6485 14.5286C87.7984 14.2462 87.8708 13.9291 87.8581 13.6096C87.8939 13.1688 87.7548 12.7316 87.4711 12.3924C87.1261 12.1012 86.6796 11.9591 86.2297 11.9974H85.6654V11.9973ZM85.6654 15.5361V17.5513C85.6507 17.7977 85.6723 18.0449 85.7299 18.2849C85.7842 18.3939 85.8757 18.4796 85.9879 18.5267C86.2041 18.607 86.435 18.6401 86.6651 18.6234V18.8169H82.9731V18.6234C83.2031 18.6401 83.434 18.607 83.6503 18.5267C83.7572 18.475 83.8448 18.3902 83.9 18.2849C83.9663 18.0465 83.9908 17.7982 83.9727 17.5513V12.876C83.9902 12.6292 83.9656 12.3811 83.9 12.1424C83.8491 12.0341 83.7602 11.9481 83.6503 11.9006C83.4334 11.823 83.2026 11.7928 82.9731 11.812V11.6104H86.3184C86.9632 11.5866 87.6085 11.649 88.2369 11.7957C88.6268 11.9058 88.9712 12.1374 89.2203 12.4568C89.477 12.7825 89.6136 13.1868 89.6073 13.6014C89.6193 14.1023 89.41 14.5831 89.0349 14.9154C88.7382 15.164 88.3832 15.3331 88.0032 15.4071L89.7363 17.8254C89.8747 18.0394 90.0369 18.2367 90.22 18.4139C90.3671 18.5247 90.5438 18.5893 90.7277 18.5993V18.7927H88.4545L86.133 15.5119L85.6654 15.5361Z" fill="#3B3F72"/>
<path d="M96.7897 18.6224V18.8159H93.0252V18.6224H93.2671C93.4406 18.6289 93.6128 18.5899 93.7668 18.5095C93.867 18.4514 93.9441 18.3602 93.9844 18.2516C94.0341 18.0323 94.0532 17.807 94.0408 17.5825V12.8427C94.0517 12.6102 94.0328 12.3772 93.9844 12.1494C93.93 12.0463 93.8457 11.9621 93.7426 11.9075C93.5947 11.8358 93.4311 11.8025 93.267 11.8109H93.0251V11.6094H96.7896V11.8109H96.5558C96.3804 11.802 96.2056 11.8381 96.048 11.9157C95.9515 11.9782 95.8758 12.068 95.8303 12.1736C95.7772 12.3923 95.7581 12.6181 95.7739 12.8427V17.5825C95.7593 17.8151 95.7783 18.0486 95.8303 18.2757C95.8849 18.3789 95.9691 18.4631 96.0722 18.5175C96.2224 18.5916 96.3884 18.6276 96.5558 18.6224H96.7896H96.7897Z" fill="#3B3F72"/>
<path d="M102.182 12.0286V14.9467H102.327C102.711 14.9814 103.085 14.817 103.319 14.5114C103.558 14.1307 103.694 13.6946 103.714 13.2457H103.916V17.0183H103.714C103.69 16.6662 103.599 16.3215 103.448 16.0025C103.347 15.7833 103.181 15.6004 102.972 15.4786C102.717 15.3735 102.442 15.3267 102.166 15.3417V17.365C102.153 17.6078 102.169 17.8514 102.214 18.0904C102.254 18.182 102.322 18.2584 102.408 18.308C102.545 18.3761 102.698 18.4067 102.851 18.3968H103.295C104.474 18.5083 105.549 17.7175 105.794 16.5588H105.987L105.665 18.8482H99.4336V18.6547H99.6753C99.8515 18.6611 100.026 18.6222 100.183 18.5418C100.281 18.4828 100.355 18.3916 100.393 18.2839C100.447 18.0652 100.466 17.8393 100.449 17.6149V12.8428C100.464 12.6442 100.464 12.4448 100.449 12.2462C100.421 12.1296 100.353 12.0268 100.256 11.9561C100.09 11.8514 99.8955 11.8008 99.6995 11.8109H99.4578V11.6094H105.495V13.7455H105.286C105.234 13.3411 105.088 12.9544 104.859 12.617C104.644 12.3759 104.364 12.2023 104.053 12.1172C103.684 12.0442 103.308 12.0144 102.932 12.0286H102.182H102.182Z" fill="#3B3F72"/>
<path d="M116.055 15.9367L114.87 13.1235L113.661 15.9367H116.055ZM116.192 16.3156H113.5L112.968 17.4119C112.876 17.6045 112.818 17.8119 112.799 18.0245C112.801 18.1337 112.855 18.2352 112.944 18.2986C113.147 18.408 113.374 18.4636 113.605 18.4598V18.6452H111.412V18.4598C111.613 18.4385 111.807 18.3694 111.976 18.2583C112.224 17.9599 112.421 17.622 112.557 17.2587L114.975 11.5273H115.152L117.571 17.3152C117.684 17.6498 117.863 17.9593 118.095 18.226C118.286 18.3747 118.521 18.4568 118.764 18.4598V18.6451H116.015V18.4598C116.212 18.4652 116.407 18.4179 116.579 18.3227C116.67 18.2543 116.724 18.1466 116.724 18.0325C116.7 17.7834 116.632 17.5405 116.523 17.3152L116.192 16.3155L116.192 16.3156Z" fill="#3B3F72"/>
<path d="M123.721 18.4577V18.6431H120.739V18.4577H121.029C121.265 18.4707 121.495 18.3793 121.658 18.2079C121.766 17.9541 121.808 17.6764 121.779 17.4018V12.9117C121.79 12.6789 121.768 12.4454 121.714 12.2186C121.669 12.1213 121.592 12.0418 121.496 11.9929C121.354 11.9134 121.193 11.8718 121.029 11.872H120.779V11.7188H123.762V11.9123H123.447C123.212 11.8908 122.981 11.9839 122.827 12.1622C122.71 12.4137 122.665 12.6928 122.698 12.9683V17.4663C122.686 17.7019 122.708 17.9381 122.762 18.1676C122.809 18.2623 122.885 18.3388 122.98 18.3853C123.12 18.4709 123.282 18.5155 123.447 18.5142L123.721 18.4578L123.721 18.4577Z" fill="#3B3F72"/>
</g>
<defs>
<clipPath id="clip0_2315_1296">
<rect width="123.523" height="36" fill="white" transform="translate(0.238525)"/>
</clipPath>
</defs>
</svg>
